<svg width="120" height="120" viewBox="0 0 120 120" fill="none" xmlns="http://www.w3.org/2000/svg">
<path d="M69.4439 4.55969L4.55968 69.4439C2.75547 71.2481 2.75547 74.1733 4.55968 75.9775L44.2162 115.634C46.0204 117.438 48.9456 117.438 50.7498 115.634L115.634 50.7498C117.438 48.9456 117.438 46.0204 115.634 44.2162L75.9775 4.55969C74.1733 2.75548 71.2481 2.75548 69.4439 4.55969ZM7.50327 72.5043C7.51803 72.4806 7.53552 72.4583 7.5557 72.4379L72.4378 7.55571C72.4583 7.53554 72.4806 7.51804 72.5043 7.50329L60.3053 60.3053L7.50327 72.5043ZM42.9408 108.369L10.6174 76.0453L47.6525 67.4852L42.9408 108.369ZM112.624 47.196C112.774 47.3461 112.774 47.5895 112.624 47.7396L47.7396 112.624C47.5895 112.774 47.346 112.774 47.196 112.624L46.7571 112.185L52.1026 66.5449L62.5409 64.1383C62.5412 64.1383 62.5416 64.1382 62.5419 64.1381C63.3371 63.9576 63.9581 63.3364 64.1383 62.541C64.1383 62.541 64.1383 62.541 64.1383 62.5409L66.5449 52.1026L112.185 46.7571L112.624 47.196ZM108.371 42.9435L67.4883 47.7722L76.1799 10.7521L108.371 42.9435Z" fill="#ED1B24" stroke="#ED1B24"/>
</svg>
