<svg xmlns="http://www.w3.org/2000/svg" width="86" height="102" viewBox="0 0 86 102"><defs><clipPath id="5g1ca"><path fill="#fff" d="M.269 90V14H85.73v76zM76.88 73.418a35.446 35.446 0 0 1-5.046-18.226V44.748c0-16.08-13.087-29.167-29.166-29.167-16.08 0-29.167 13.088-29.167 29.167v10.446c0 6.42-1.746 12.72-5.046 18.225L1.298 85.341a2.083 2.083 0 0 0 1.787 3.155h79.167a2.083 2.083 0 1 0 1.788-3.154zM6.764 84.33l5.263-8.77a39.576 39.576 0 0 0 5.642-20.367V44.747c0-13.788 11.212-25 25-25 13.787 0 25 11.212 25 25v10.446c0 7.175 1.95 14.216 5.637 20.366l5.267 8.771z"/></clipPath><clipPath id="5g1cb"><path fill="#fff" d="M33.5 21V0h18v21zm9.173-20c-4.596 0-8.333 3.737-8.333 8.333v8.334a2.084 2.084 0 0 0 4.167 0V9.333c0-2.3 1.866-4.166 4.166-4.166 2.3 0 4.167 1.866 4.167 4.166v8.334a2.084 2.084 0 0 0 4.167 0V9.333C51.007 4.737 47.269 1 42.673 1z"/></clipPath><clipPath id="5g1cc"><path fill="#fff" d="M31 102V83h24v19zm20.683-16.633a2.1 2.1 0 0 0-2.854-.746 2.084 2.084 0 0 0-.746 2.854c.542.92.838 2.025.838 3.112a6.258 6.258 0 0 1-6.25 6.25 6.258 6.258 0 0 1-6.25-6.25c0-1.087.296-2.191.837-3.112a2.09 2.09 0 0 0-.746-2.854 2.096 2.096 0 0 0-2.854.746 10.348 10.348 0 0 0-1.408 5.22c0 5.746 4.67 10.417 10.417 10.417 5.746 0 10.416-4.67 10.425-10.416 0-1.842-.488-3.646-1.409-5.221z"/></clipPath></defs><g><g><path fill="#ed1b24" d="M84.04 85.343a2.083 2.083 0 0 1-1.788 3.154H3.085a2.083 2.083 0 1 1-1.788-3.154l7.159-11.926a35.446 35.446 0 0 0 5.046-18.224V44.747c0-16.08 13.087-29.167 29.166-29.167 16.08 0 29.167 13.088 29.167 29.167v10.446c0 6.42 1.746 12.72 5.046 18.225zm-5.467-1.013l-5.267-8.77a39.612 39.612 0 0 1-5.638-20.367V44.747c0-13.788-11.212-25-25-25-13.787 0-25 11.212-25 25v10.446c0 7.175-1.95 14.216-5.641 20.366L6.764 84.33z"/><path fill="none" stroke="#ed1b24" stroke-miterlimit="20" stroke-width="2" d="M84.04 85.343a2.083 2.083 0 0 1-1.788 3.154H3.085a2.083 2.083 0 1 1-1.788-3.154l7.159-11.926a35.446 35.446 0 0 0 5.046-18.224V44.747c0-16.08 13.087-29.167 29.166-29.167 16.08 0 29.167 13.088 29.167 29.167v10.446c0 6.42 1.746 12.72 5.046 18.225zm-5.467-1.013l-5.267-8.77a39.612 39.612 0 0 1-5.638-20.367V44.747c0-13.788-11.212-25-25-25-13.787 0-25 11.212-25 25v10.446c0 7.175-1.95 14.216-5.641 20.366L6.764 84.33z" clip-path="url(&quot;#5g1ca&quot;)"/></g><g><path fill="#ed1b24" d="M42.673 1c-4.596 0-8.333 3.737-8.333 8.333v8.334a2.084 2.084 0 0 0 4.167 0V9.333c0-2.3 1.866-4.166 4.166-4.166 2.3 0 4.167 1.866 4.167 4.166v8.334a2.084 2.084 0 0 0 4.167 0V9.333C51.007 4.737 47.269 1 42.673 1z"/><path fill="none" stroke="#ed1b24" stroke-miterlimit="20" stroke-width="2" d="M42.673 1c-4.596 0-8.333 3.737-8.333 8.333v8.334a2.084 2.084 0 0 0 4.167 0V9.333c0-2.3 1.866-4.166 4.166-4.166 2.3 0 4.167 1.866 4.167 4.166v8.334a2.084 2.084 0 0 0 4.167 0V9.333C51.007 4.737 47.269 1 42.673 1z" clip-path="url(&quot;#5g1cb&quot;)"/></g><g><path fill="#ed1b24" d="M51.683 85.367a2.1 2.1 0 0 0-2.854-.746 2.084 2.084 0 0 0-.746 2.854c.542.92.838 2.025.838 3.112a6.258 6.258 0 0 1-6.25 6.25 6.258 6.258 0 0 1-6.25-6.25c0-1.087.296-2.191.837-3.112a2.09 2.09 0 0 0-.746-2.854 2.096 2.096 0 0 0-2.854.746 10.348 10.348 0 0 0-1.408 5.22c0 5.746 4.67 10.417 10.417 10.417 5.746 0 10.416-4.67 10.425-10.416 0-1.842-.488-3.646-1.409-5.221z"/><path fill="none" stroke="#ed1b24" stroke-miterlimit="20" stroke-width="2" d="M51.683 85.367a2.1 2.1 0 0 0-2.854-.746 2.084 2.084 0 0 0-.746 2.854c.542.92.838 2.025.838 3.112a6.258 6.258 0 0 1-6.25 6.25 6.258 6.258 0 0 1-6.25-6.25c0-1.087.296-2.191.837-3.112a2.09 2.09 0 0 0-.746-2.854 2.096 2.096 0 0 0-2.854.746 10.348 10.348 0 0 0-1.408 5.22c0 5.746 4.67 10.417 10.417 10.417 5.746 0 10.416-4.67 10.425-10.416 0-1.842-.488-3.646-1.409-5.221z" clip-path="url(&quot;#5g1cc&quot;)"/></g></g></svg>