<svg width="100" height="100" viewBox="0 0 100 100" fill="none" xmlns="http://www.w3.org/2000/svg">
<path d="M50 0.5C63.2229 0.5 75.6517 5.6483 85.0017 14.9981C94.3517 24.3483 99.5 36.7771 99.5 50C99.5 63.2229 94.3517 75.6517 85.0017 85.0017C75.6517 94.3517 63.2229 99.5 50 99.5C36.7769 99.5 24.3481 94.3517 14.9981 85.0017C5.64811 75.6517 0.5 63.2229 0.5 50C0.5 36.7771 5.64811 24.3481 14.9981 14.9981C24.3479 5.6483 36.7769 0.5 50 0.5ZM5.35938 50C5.35938 74.6154 25.3846 94.6406 50 94.6406C74.6154 94.6406 94.6406 74.6154 94.6406 50C94.6406 25.3846 74.6154 5.35938 50 5.35938C25.3846 5.35938 5.35938 25.3846 5.35938 50Z" fill="#ED1B24" stroke="#ED1B24"/>
</svg>
