<svg width="82" height="101" viewBox="0 0 82 101" fill="none" xmlns="http://www.w3.org/2000/svg">
<path d="M81.5 50.5073C81.5 43.9208 76.8043 38.4251 70.5909 37.1545V27.3636C70.5909 12.506 57.2687 0.5 41 0.5C24.7313 0.5 11.4091 12.506 11.4091 27.3636V37.1545C5.19567 38.4252 0.5 43.9209 0.5 50.5091V86.04C0.5 93.5616 6.62027 99.6818 14.1436 99.6818H67.8564C75.3798 99.6818 81.5 93.5616 81.5 86.0382V50.5073ZM16.0455 27.3636C16.0455 15.1588 27.185 5.13636 41 5.13636C54.815 5.13636 65.9545 15.1588 65.9545 27.3636V36.8636H16.0455V27.3636ZM76.8636 86.0382C76.8636 91.0039 72.822 95.0455 67.8564 95.0455H14.1436C9.17796 95.0455 5.13636 91.0039 5.13636 86.0382V50.5073C5.13636 45.5416 9.17796 41.5 14.1436 41.5H67.8564C72.822 41.5 76.8636 45.5416 76.8636 50.5073V86.0382Z" fill="#ED1B24" stroke="#ED1B24"/>
</svg>
