<svg width="188" height="335" viewBox="0 0 188 335" fill="none" xmlns="http://www.w3.org/2000/svg">
<path opacity="0.06" fill-rule="evenodd" clip-rule="evenodd" d="M174.761 6.62055H13.2394C9.58347 6.62055 6.61972 9.58468 6.61972 13.2411V37.7372H181.38V13.2411C181.38 9.58468 178.417 6.62055 174.761 6.62055ZM0 37.7372V44.3577V278.725V285.346V321.759C0 329.072 5.9275 335 13.2394 335H174.761C182.073 335 188 329.072 188 321.759V285.346V278.725V44.3577V37.7372V13.2411C188 5.92825 182.073 0 174.761 0H13.2394C5.9275 0 0 5.92825 0 13.2411V37.7372ZM181.38 278.725V44.3577H6.61972V278.725H181.38ZM6.61972 285.346V321.759C6.61972 325.415 9.58347 328.379 13.2394 328.379H174.761C178.417 328.379 181.38 325.415 181.38 321.759V285.346H6.61972ZM68.1831 21.8478C68.1831 20.0196 69.665 18.5375 71.493 18.5375H116.507C118.335 18.5375 119.817 20.0196 119.817 21.8478C119.817 23.676 118.335 25.1581 116.507 25.1581H71.493C69.665 25.1581 68.1831 23.676 68.1831 21.8478ZM100.62 305.87C100.62 309.526 97.656 312.49 94 312.49C90.344 312.49 87.3803 309.526 87.3803 305.87C87.3803 302.213 90.344 299.249 94 299.249C97.656 299.249 100.62 302.213 100.62 305.87ZM107.239 305.87C107.239 313.182 101.312 319.111 94 319.111C86.6881 319.111 80.7606 313.182 80.7606 305.87C80.7606 298.557 86.6881 292.628 94 292.628C101.312 292.628 107.239 298.557 107.239 305.87Z" fill="url(#paint0_linear)"/>
<defs>
<linearGradient id="paint0_linear" x1="94" y1="0" x2="182.606" y2="309.645" gradientUnits="userSpaceOnUse">
<stop stop-color="#ED1B24"/>
<stop offset="1" stop-color="#ED1B24" stop-opacity="0"/>
</linearGradient>
</defs>
</svg>
