<svg width="174" height="152" viewBox="0 0 174 152" fill="none" xmlns="http://www.w3.org/2000/svg">
<path d="M169.624 38.4176L34.3249 2.16442C32.7248 1.73568 31.0786 2.68352 30.6491 4.28664L2.16442 110.593C1.73487 112.196 2.68657 113.84 4.28665 114.269L139.585 150.522C141.185 150.951 142.832 150.003 143.261 148.4L171.746 42.0934C172.175 40.4903 171.224 38.8464 169.624 38.4176ZM138.24 143.947L8.73923 109.247L35.6703 8.73923L165.171 43.4389L138.24 143.947Z" fill="#ED1B24" stroke="#ED1B24"/>
<path d="M55.9751 66.3275C63.6615 68.3871 71.5881 63.8107 73.6471 56.1267C75.7073 48.4379 71.1309 40.5112 63.4444 38.4516C55.758 36.3921 47.8314 40.9685 45.7718 48.6549C43.7123 56.3413 48.2887 64.2679 55.9751 66.3275ZM61.8909 44.2497C66.3788 45.4522 69.0516 50.0849 67.8497 54.5707C66.6477 59.0564 62.0167 61.732 57.5287 60.5295C53.0405 59.3269 50.3673 54.6965 51.5692 50.2109C52.7712 45.725 57.4031 43.0472 61.8909 44.2497Z" fill="#ED1B24" stroke="#ED1B24"/>
<path d="M24.7741 103.447L24.7744 103.447L73.0647 79.517L91.0516 110.668C91.8812 112.105 93.7139 112.596 95.1509 111.766C96.5878 110.936 97.0789 109.104 96.2493 107.667L87.9862 93.3547L115.852 75.5346L136.107 107.343L136.107 107.343C136.998 108.741 138.854 109.151 140.252 108.261C141.649 107.371 142.063 105.515 141.169 104.116L119.298 69.7718L119.298 69.771C118.865 69.0943 118.179 68.6391 117.425 68.4555L117.425 68.4554L117.414 68.4529C116.637 68.2819 115.821 68.4268 115.15 68.856L115.15 68.856L84.9836 88.1506L76.8565 74.0739L76.8561 74.0733C76.0622 72.7025 74.3437 72.1824 72.9252 72.8838L72.9247 72.884L22.1114 98.0671C20.6245 98.803 20.0181 100.604 20.7535 102.09L20.7536 102.09C21.153 102.897 21.8657 103.442 22.6672 103.657C23.3453 103.838 24.0938 103.784 24.7741 103.447Z" fill="#ED1B24" stroke="#ED1B24"/>
</svg>
