<svg xmlns="http://www.w3.org/2000/svg" width="79" height="70" viewBox="0 0 79 70"><defs><clipPath id="vuj8a"><path fill="#fff" d="M0 71V0h79v71zm8.885-58.56c-.6 0-1.085.443-1.085.992V57.07c0 .549.486.992 1.085.992h60.737c.6 0 1.085-.443 1.085-.992V13.432c0-.549-.486-.992-1.085-.992zm59.653 43.638H9.969V14.424h58.569z"/></clipPath><clipPath id="vuj8b"><path fill="#fff" d="M22 31v-.084a3.318 3.318 0 0 1-.71-2.042c0-.76.262-1.464.71-2.042v-2.664c-1.727.973-2.88 2.718-2.88 4.705 0 3.046 2.71 5.524 6.04 5.524 2.507 0 4.662-1.404 5.575-3.397h-2.483c-.707.857-1.83 1.413-3.092 1.413s-2.385-.556-3.093-1.413zm0-15h15v15h-6.265c.3-.655.465-1.373.465-2.126 0-3.047-2.709-5.524-6.04-5.524-1.158 0-2.24.3-3.16.818zm3.16 9.334c2.135 0 3.871 1.588 3.871 3.54A3.33 3.33 0 0 1 28.252 31h-6.185a3.6 3.6 0 0 1-.067-.084v-4.084c.702-.906 1.857-1.498 3.16-1.498z"/></clipPath><clipPath id="vuj8c"><path fill="#fff" d="M8.143 54V31H49.01l-9.247 9.261-5.144-4.704a1.16 1.16 0 0 0-1.484-.043l-18.457 14.86a.934.934 0 0 0-.097 1.4c.214.223.514.336.814.336.254 0 .51-.081.716-.247L33.804 37.62l11.174 10.217c.424.387 1.11.387 1.533 0a.932.932 0 0 0 0-1.403l-5.213-4.767 9.957-9.972 10.602 8.888V54zm53.715-23v6.89L53.638 31zm1.611 10.933c.442.37 1.128.342 1.533-.062a.933.933 0 0 0-.068-1.401l-3.077-2.58v2.692zM51.92 29.56a1.183 1.183 0 0 0-.78-.26 1.131 1.131 0 0 0-.753.323L49.01 31h4.627z"/></clipPath></defs><g><g transform="rotate(25.88 39.5 35.5)"><g><path fill="#ed1b24" d="M69.622 12.44c.6 0 1.085.443 1.085.992V57.07c0 .549-.486.992-1.085.992H8.885c-.6 0-1.085-.443-1.085-.992V13.432c0-.549.486-.992 1.085-.992zm-1.084 1.984H9.969v41.654h58.569z"/><path fill="none" stroke="#ed1b24" stroke-miterlimit="20" stroke-width="2" d="M69.622 12.44c.6 0 1.085.443 1.085.992V57.07c0 .549-.486.992-1.085.992H8.885c-.6 0-1.085-.443-1.085-.992V13.432c0-.549.486-.992 1.085-.992zm-1.084 1.984H9.969v41.654h58.569z" clip-path="url(&quot;#vuj8a&quot;)"/></g><g><path fill="#ed1b24" d="M19.12 28.873c0-3.046 2.71-5.523 6.04-5.523 3.331 0 6.04 2.477 6.04 5.524 0 3.045-2.709 5.523-6.04 5.523-3.33 0-6.04-2.478-6.04-5.524zm2.17.001c0 1.951 1.736 3.539 3.87 3.539 2.135 0 3.871-1.589 3.871-3.54 0-1.95-1.736-3.54-3.87-3.54-2.135 0-3.872 1.59-3.872 3.541z"/><path fill="none" stroke="#ed1b24" stroke-miterlimit="20" stroke-width="2" d="M19.12 28.873c0-3.046 2.71-5.523 6.04-5.523 3.331 0 6.04 2.477 6.04 5.524 0 3.045-2.709 5.523-6.04 5.523-3.33 0-6.04-2.478-6.04-5.524zm2.17.001c0 1.951 1.736 3.539 3.87 3.539 2.135 0 3.871-1.589 3.871-3.54 0-1.95-1.736-3.54-3.87-3.54-2.135 0-3.872 1.59-3.872 3.541z" clip-path="url(&quot;#vuj8b&quot;)"/></g><g><path fill="#ed1b24" d="M15.395 52.11c.254 0 .51-.081.716-.247L33.804 37.62l11.174 10.217c.424.388 1.11.388 1.533 0a.932.932 0 0 0 0-1.403l-5.213-4.767 9.957-9.972L63.47 41.933c.442.37 1.128.342 1.533-.062a.933.933 0 0 0-.068-1.401L51.92 29.56a1.183 1.183 0 0 0-.78-.26 1.131 1.131 0 0 0-.753.323L39.763 40.26l-5.144-4.704a1.16 1.16 0 0 0-1.484-.043l-18.457 14.86a.934.934 0 0 0-.097 1.4c.214.223.514.336.814.336z"/><path fill="none" stroke="#ed1b24" stroke-miterlimit="20" stroke-width="2" d="M15.395 52.11c.254 0 .51-.081.716-.247L33.804 37.62v0l11.174 10.217c.424.388 1.11.388 1.533 0a.932.932 0 0 0 0-1.403l-5.213-4.767v0l9.957-9.972v0L63.47 41.933c.442.37 1.128.342 1.533-.062a.933.933 0 0 0-.068-1.401L51.92 29.56a1.183 1.183 0 0 0-.78-.26 1.131 1.131 0 0 0-.753.323L39.763 40.26v0l-5.144-4.704a1.16 1.16 0 0 0-1.484-.043l-18.457 14.86a.934.934 0 0 0-.097 1.4c.214.223.514.336.814.336z" clip-path="url(&quot;#vuj8c&quot;)"/></g></g></g></svg>