<svg xmlns="http://www.w3.org/2000/svg" width="90" height="102" viewBox="0 0 90 102"><defs><clipPath id="mxi1a"><path fill="#fff" d="M-1 102V-1h91v103zm4.381-84.41a1.46 1.46 0 0 0-1.461 1.461v64.294a1.46 1.46 0 0 0 1.461 1.461H85.21a1.46 1.46 0 0 0 1.46-1.461V19.05a1.46 1.46 0 0 0-1.46-1.461zm80.367 64.294H4.842V20.512h78.906z"/></clipPath><clipPath id="mxi1b"><path fill="#fff" d="M20 76V57h19v19zm-2.84-34.202c0-4.488 3.65-8.138 8.138-8.138 4.487 0 8.137 3.65 8.137 8.139 0 4.486-3.65 8.136-8.137 8.136-4.488 0-8.138-3.65-8.138-8.137zm2.922.001a5.22 5.22 0 0 0 5.216 5.214 5.222 5.222 0 0 0 5.215-5.215 5.222 5.222 0 0 0-5.215-5.216 5.223 5.223 0 0 0-5.216 5.217z"/></clipPath><clipPath id="mxi1c"><path fill="#fff" d="M39.192 91V56.936l12.805 12.803a1.46 1.46 0 0 0 2.066 0 1.46 1.46 0 0 0 0-2.066l-7.024-7.024 13.415-14.691 5.354 4.908V91zm0-73h26.616v28.901l-4.46-4.088a1.507 1.507 0 0 0-1.052-.383 1.464 1.464 0 0 0-1.014.475L44.972 58.58l-5.78-5.78zm-27.05 58.037c.342 0 .687-.12.964-.364l23.837-20.986 2.249 2.249V52.8l-1.151-1.152a1.463 1.463 0 0 0-2-.064L11.177 73.478a1.462 1.462 0 0 0 .966 2.559zm64.767-14.995a1.462 1.462 0 0 0 1.974-2.155L65.808 46.9v3.965z"/></clipPath></defs><g><g transform="rotate(-73.44 44.5 50.5)"><g><path fill="#ed1b24" d="M85.21 17.59a1.46 1.46 0 0 1 1.46 1.461v64.294a1.46 1.46 0 0 1-1.46 1.461H3.38a1.46 1.46 0 0 1-1.461-1.461V19.05a1.46 1.46 0 0 1 1.461-1.461zm-1.462 2.922H4.842v61.372h78.906z"/><path fill="none" stroke="#ed1b24" stroke-miterlimit="20" stroke-width="2" d="M85.21 17.59a1.46 1.46 0 0 1 1.46 1.461v64.294a1.46 1.46 0 0 1-1.46 1.461H3.38a1.46 1.46 0 0 1-1.461-1.461V19.05a1.46 1.46 0 0 1 1.461-1.461zm-1.462 2.922H4.842v61.372h78.906z" clip-path="url(&quot;#mxi1a&quot;)"/></g><g><path fill="#ed1b24" d="M17.16 41.798c0-4.488 3.65-8.138 8.138-8.138 4.487 0 8.137 3.65 8.137 8.139 0 4.486-3.65 8.136-8.137 8.136-4.488 0-8.138-3.65-8.138-8.137zm2.922.001a5.22 5.22 0 0 0 5.216 5.214 5.222 5.222 0 0 0 5.215-5.215 5.222 5.222 0 0 0-5.215-5.216 5.223 5.223 0 0 0-5.216 5.217z"/><path fill="none" stroke="#ed1b24" stroke-miterlimit="20" stroke-width="2" d="M17.16 41.798c0-4.488 3.65-8.138 8.138-8.138 4.487 0 8.137 3.65 8.137 8.139 0 4.486-3.65 8.136-8.137 8.136-4.488 0-8.138-3.65-8.138-8.137zm2.922.001a5.22 5.22 0 0 0 5.216 5.214 5.222 5.222 0 0 0 5.215-5.215 5.222 5.222 0 0 0-5.215-5.216 5.223 5.223 0 0 0-5.216 5.217z" clip-path="url(&quot;#mxi1b&quot;)"/></g><g><path fill="#ed1b24" d="M12.142 76.037c.342 0 .687-.12.964-.364l23.837-20.986L51.997 69.74a1.46 1.46 0 0 0 2.066 0 1.46 1.46 0 0 0 0-2.066l-7.024-7.024 13.415-14.691L76.91 61.042a1.462 1.462 0 0 0 1.974-2.155L61.35 42.813a1.507 1.507 0 0 0-1.052-.383 1.464 1.464 0 0 0-1.015.475L44.972 58.58l-6.931-6.93a1.463 1.463 0 0 0-2-.065L11.177 73.478a1.462 1.462 0 0 0 .966 2.559z"/><path fill="none" stroke="#ed1b24" stroke-miterlimit="20" stroke-width="2" d="M12.142 76.037c.342 0 .687-.12.964-.364l23.837-20.986v0L51.997 69.74a1.46 1.46 0 0 0 2.066 0 1.46 1.46 0 0 0 0-2.066l-7.024-7.024v0l13.415-14.691v0L76.91 61.042a1.462 1.462 0 0 0 1.974-2.155L61.35 42.813a1.507 1.507 0 0 0-1.052-.383 1.464 1.464 0 0 0-1.015.475L44.972 58.58v0l-6.931-6.93a1.463 1.463 0 0 0-2-.065L11.177 73.478a1.462 1.462 0 0 0 .966 2.559z" clip-path="url(&quot;#mxi1c&quot;)"/></g></g></g></svg>