<svg width="53" height="42" viewBox="0 0 53 42" fill="none" xmlns="http://www.w3.org/2000/svg">
<path d="M41.6942 1.97561L3.5818 12.1878C2.36441 12.514 1.65488 13.7731 1.98121 14.991L8.2998 38.5723C8.62613 39.7902 9.87017 40.5258 11.0875 40.1996L49.1999 29.9875C50.4173 29.6613 51.1269 28.4021 50.8005 27.1842L44.4819 3.60296C44.1556 2.38509 42.9116 1.64941 41.6942 1.97561ZM26.3374 20.8881L5.10719 14.2725L41.4155 4.54369L26.3374 20.8881ZM9.77588 34.8419L4.91234 16.6909L19.7004 21.2975L9.77588 34.8419ZM48.4585 27.683L10.5774 37.8332L10.5722 37.8136L22.1347 22.0949L26.3507 23.4108C26.3511 23.4109 26.3514 23.411 26.3518 23.4111C26.7931 23.5503 27.2739 23.4215 27.5865 23.0803C27.5868 23.08 27.587 23.0798 27.5872 23.0795L30.5805 19.8319L48.4533 27.6634L48.4585 27.683ZM42.8144 6.61872L47.658 24.6953L32.2676 17.9695L42.8144 6.61872Z" fill="#ED1B24" stroke="#ED1B24"/>
</svg>
