<svg width="60" height="40" viewBox="0 0 60 40" fill="none" xmlns="http://www.w3.org/2000/svg">
<path d="M56.6104 0.5L3.38956 0.5C1.78505 0.5 0.5 1.82227 0.5 3.43394L0.5 36.5661C0.5 38.1777 1.78505 39.5 3.38956 39.5H56.6104C58.2149 39.5 59.5 38.1777 59.5 36.5661V3.43394C59.5 1.82227 58.2149 0.5 56.6104 0.5ZM30 19.9298L4.0381 3.41147L55.9619 3.41147L30 19.9298ZM3.37662 32.5628L3.37662 6.37074L21.513 17.9076L3.37662 32.5628ZM56.6234 36.5533C56.6234 36.5587 56.6224 36.5623 56.6213 36.5649C56.6201 36.5679 56.6183 36.5705 56.6164 36.5725C56.6144 36.5745 56.6128 36.5753 56.6123 36.5755L56.6122 36.5756C56.612 36.5756 56.6117 36.5758 56.6104 36.5758H3.38956C3.38825 36.5758 3.38802 36.5756 3.38782 36.5755C3.3876 36.5755 3.38725 36.5753 3.3868 36.575C3.38602 36.5745 3.38493 36.5737 3.38368 36.5724C3.38169 36.5704 3.37992 36.5678 3.37869 36.5649C3.37758 36.5622 3.37662 36.5586 3.37662 36.5533V36.283L24.0914 19.6078L29.2293 22.8801C29.2297 22.8804 29.2301 22.8806 29.2305 22.8809C29.7003 23.182 30.2997 23.182 30.7695 22.8809C30.7699 22.8806 30.7703 22.8804 30.7707 22.8801L35.9086 19.6078L56.6234 36.283V36.5533ZM56.6234 6.48168V32.5666L38.4408 17.959L56.6234 6.48168Z" fill="#ED1B24" stroke="#ED1B24"/>
</svg>
