<svg width="87" height="87" viewBox="0 0 87 87" fill="none" xmlns="http://www.w3.org/2000/svg">
<path d="M50.4622 1.64952L1.82998 50.2818C0.428774 51.683 0.428773 53.9547 1.82998 55.3559L31.5535 85.0794C32.9547 86.4807 35.2265 86.4807 36.6277 85.0794L85.2599 36.4472C86.6611 35.046 86.6611 32.7742 85.2599 31.373L55.5364 1.64952C54.1352 0.248314 51.8634 0.248314 50.4622 1.64952ZM4.50866 52.4469L52.6274 4.3282L43.5968 43.4163L4.50866 52.4469ZM30.5914 79.2735L6.70725 55.3894L34.0729 49.0642L30.5914 79.2735ZM82.8265 33.7835C82.8902 33.8471 82.8901 33.9503 82.8265 34.0138L34.1943 82.6461C34.1308 82.7096 34.0275 82.7096 33.964 82.6461L33.6779 82.36L37.6672 48.2997L45.4045 46.5158C45.405 46.5157 45.4055 46.5156 45.406 46.5155C46.0483 46.3694 46.5499 45.8678 46.6959 45.2255C46.696 45.225 46.6962 45.2245 46.6963 45.224L48.4801 37.4867L82.5405 33.4975L82.8265 33.7835ZM79.4566 30.4136L49.2478 33.9815L55.6701 6.62708L79.4566 30.4136Z" fill="#ED1B24" stroke="#ED1B24"/>
</svg>
