<svg width="95" height="79" viewBox="0 0 95 79" fill="none" xmlns="http://www.w3.org/2000/svg">
<path d="M91.5421 29.198L23.367 1.11406C21.4211 0.312474 19.1939 1.24009 18.3924 3.18597L1.22775 44.8538C0.42617 46.7997 1.35379 49.0269 3.29967 49.8285L71.4747 77.9124C73.4206 78.714 75.6478 77.7864 76.4494 75.8405L93.614 34.1727C94.4156 32.2268 93.4879 29.9996 91.5421 29.198ZM22.2396 4.54298L89.9272 32.4261L47.3747 39.6252L22.2396 4.54298ZM6.48208 41.55L20.3277 7.93905L37.9348 32.509L6.48208 41.55ZM73.1274 74.4533C73.0831 74.5609 72.96 74.6122 72.8524 74.5679L4.67742 46.4839C4.56996 46.4397 4.51862 46.3164 4.56289 46.2089L4.73473 45.7918L40.1285 35.6888L45.098 42.6316C45.0983 42.6321 45.0986 42.6325 45.0989 42.6329C45.5001 43.1971 46.1896 43.4811 46.8718 43.3632C46.8723 43.3631 46.8728 43.3631 46.8733 43.363L55.2911 41.9349L73.2993 74.0362L73.1274 74.4533ZM75.0452 69.7979L59.0008 41.2624L88.8343 36.3243L75.0452 69.7979Z" fill="#ED1B24" stroke="#ED1B24"/>
</svg>
