<svg xmlns="http://www.w3.org/2000/svg" width="59" height="59" viewBox="0 0 59 59"><defs><clipPath id="6a53a"><path fill="#fff" d="M0 59V0h59v59zm6.923-46.48c-.443 0-.803.328-.803.734v32.308c0 .406.36.734.803.734H51.89c.444 0 .803-.328.803-.734V13.254c0-.406-.36-.734-.803-.734zm44.164 32.308H7.726v-30.84h43.361z"/></clipPath><clipPath id="6a53b"><path fill="#fff" d="M13 39V28h3.35c.737.49 1.643.778 2.622.778.979 0 1.885-.289 2.622-.778H24v11zm10.444-14.31c0-2.256-2.006-4.09-4.472-4.09-2.466 0-4.472 1.834-4.472 4.09 0 1.36.73 2.566 1.85 3.31h5.244c1.12-.744 1.85-1.95 1.85-3.31zm-4.472-2.621c1.58 0 2.866 1.176 2.866 2.62 0 1.444-1.286 2.62-2.866 2.62s-2.866-1.175-2.866-2.62c0-1.443 1.286-2.62 2.866-2.62z"/></clipPath><clipPath id="6a53c"><path fill="#fff" d="M23.993 53V32.27l1.38-1.11 8.272 7.563a.856.856 0 0 0 1.135 0 .69.69 0 0 0 0-1.038l-3.86-3.53 7.373-7.382 8.714 7.305V53zm0-36h23.014v15.085l-8.223-6.892a.876.876 0 0 0-.578-.193.837.837 0 0 0-.557.239l-7.865 7.876-3.808-3.482a.86.86 0 0 0-1.099-.033l-.884.712zm-11.72 24.705l11.72-9.435v-1.958l-12.78 10.29a.691.691 0 0 0-.073 1.037c.16.165.381.249.603.249.188 0 .378-.06.53-.183zm35.062-7.352a.857.857 0 0 0 1.135-.046.69.69 0 0 0-.05-1.037l-1.413-1.185v1.993z"/></clipPath></defs><g><g transform="rotate(-45 29.5 29.5)"><g><path fill="#ed1b24" d="M51.89 12.52c.444 0 .803.328.803.734v32.308c0 .406-.36.734-.803.734H6.923c-.443 0-.803-.328-.803-.734V13.254c0-.406.36-.734.803-.734zm-.803 1.469H7.726v30.839h43.361z"/><path fill="none" stroke="#ed1b24" stroke-miterlimit="20" stroke-width="2" d="M51.89 12.52c.444 0 .803.328.803.734v32.308c0 .406-.36.734-.803.734H6.923c-.443 0-.803-.328-.803-.734V13.254c0-.406.36-.734.803-.734zm-.803 1.469H7.726v30.839h43.361z" clip-path="url(&quot;#6a53a&quot;)"/></g><g><path fill="#ed1b24" d="M14.5 24.69c0-2.256 2.006-4.09 4.472-4.09 2.466 0 4.472 1.834 4.472 4.09 0 2.254-2.006 4.088-4.472 4.088-2.466 0-4.472-1.834-4.472-4.089zm1.606 0c0 1.444 1.286 2.62 2.866 2.62s2.866-1.177 2.866-2.62c0-1.445-1.286-2.621-2.866-2.621s-2.866 1.177-2.866 2.62z"/><path fill="none" stroke="#ed1b24" stroke-miterlimit="20" stroke-width="2" d="M14.5 24.69c0-2.256 2.006-4.09 4.472-4.09 2.466 0 4.472 1.834 4.472 4.09 0 2.254-2.006 4.088-4.472 4.088-2.466 0-4.472-1.834-4.472-4.089zm1.606 0c0 1.444 1.286 2.62 2.866 2.62s2.866-1.177 2.866-2.62c0-1.445-1.286-2.621-2.866-2.621s-2.866 1.177-2.866 2.62z" clip-path="url(&quot;#6a53b&quot;)"/></g><g><path fill="#ed1b24" d="M11.743 41.888c.188 0 .378-.06.53-.183l13.1-10.546 8.272 7.564a.856.856 0 0 0 1.135 0 .69.69 0 0 0 0-1.038l-3.86-3.53 7.373-7.382 9.042 7.58a.857.857 0 0 0 1.135-.046.69.69 0 0 0-.05-1.037l-9.636-8.077a.876.876 0 0 0-.578-.193.837.837 0 0 0-.557.239l-7.865 7.876-3.808-3.482a.86.86 0 0 0-1.099-.033L11.213 40.602a.691.691 0 0 0-.073 1.037c.16.165.381.249.603.249z"/><path fill="none" stroke="#ed1b24" stroke-miterlimit="20" stroke-width="2" d="M11.743 41.888c.188 0 .378-.06.53-.183l13.1-10.546v0l8.272 7.564a.856.856 0 0 0 1.135 0 .69.69 0 0 0 0-1.038l-3.86-3.53v0l7.373-7.382v0l9.042 7.58a.857.857 0 0 0 1.135-.046.69.69 0 0 0-.05-1.037l-9.636-8.077a.876.876 0 0 0-.578-.193.837.837 0 0 0-.557.239l-7.865 7.876v0l-3.808-3.482a.86.86 0 0 0-1.099-.033L11.213 40.602a.691.691 0 0 0-.073 1.037c.16.165.381.249.603.249z" clip-path="url(&quot;#6a53c&quot;)"/></g></g></g></svg>