<svg xmlns="http://www.w3.org/2000/svg" width="150" height="145" viewBox="0 0 150 145"><defs><clipPath id="dqala"><path fill="#fff" d="M0 145V-1h150v146zM18.168 25.91a2.017 2.017 0 0 0-2.018 2.018v88.781c0 1.116.904 2.018 2.018 2.018h112.994a2.017 2.017 0 0 0 2.018-2.018V27.928a2.017 2.017 0 0 0-2.018-2.018zm110.976 88.781H20.186V29.946h108.958z"/></clipPath><clipPath id="dqalb"><path fill="#fff" d="M34 91V65h4.728c1.95 3.337 5.572 5.584 9.709 5.584s7.759-2.247 9.71-5.584H59v26zm25.674-31.651c0-6.199-5.04-11.239-11.237-11.239S37.2 53.15 37.2 59.347c0 2.06.557 3.991 1.528 5.653h5.252a7.19 7.19 0 0 1-2.744-5.651c0-3.969 3.23-7.203 7.2-7.203 3.972 0 7.202 3.232 7.202 7.2A7.193 7.193 0 0 1 52.893 65h5.253a11.165 11.165 0 0 0 1.528-5.651zm-11.237 7.2c-1.681 0-3.23-.58-4.457-1.549h8.913a7.165 7.165 0 0 1-4.456 1.548z"/></clipPath><clipPath id="dqalc"><path fill="#fff" d="M56.265 128V84.419l8.261-7.274L85.313 97.93a2.016 2.016 0 0 0 2.853 0 2.016 2.016 0 0 0 0-2.853l-9.7-9.7 18.526-20.286 22.722 20.83a2.019 2.019 0 0 0 3.02-.338V128zm0-80h66.47v35.281a2.021 2.021 0 0 0-.295-.336L98.227 60.749a2.081 2.081 0 0 0-1.453-.528c-.535.024-1.04.26-1.4.655L75.612 82.521l-9.57-9.57a2.02 2.02 0 0 0-2.76-.09l-7.017 6.178zM30.28 106.627c.472 0 .948-.165 1.332-.502l24.654-21.706v-5.38l-27.32 24.055a2.018 2.018 0 0 0 1.334 3.533zm92.456-23.346v2.302a2.019 2.019 0 0 0 0-2.302z"/></clipPath></defs><g><g transform="rotate(-37.14 75 72)"><g><path fill="#ed1b24" d="M131.162 25.91c1.114 0 2.018.902 2.018 2.018v88.781a2.017 2.017 0 0 1-2.018 2.018H18.168a2.017 2.017 0 0 1-2.018-2.018V27.928c0-1.116.904-2.018 2.018-2.018zm-2.018 4.036H20.186v84.745h108.958z"/><path fill="none" stroke="#ed1b24" stroke-miterlimit="20" stroke-width="2" d="M131.162 25.91c1.114 0 2.018.902 2.018 2.018v88.781a2.017 2.017 0 0 1-2.018 2.018H18.168a2.017 2.017 0 0 1-2.018-2.018V27.928c0-1.116.904-2.018 2.018-2.018zm-2.018 4.036H20.186v84.745h108.958z" clip-path="url(&quot;#dqala&quot;)"/></g><g><path fill="#ed1b24" d="M37.2 59.347c0-6.197 5.04-11.237 11.237-11.237 6.196 0 11.237 5.04 11.237 11.239 0 6.194-5.04 11.235-11.237 11.235S37.2 65.544 37.2 59.347zm4.036.002c0 3.969 3.23 7.2 7.2 7.2 3.972 0 7.202-3.233 7.202-7.202 0-3.97-3.23-7.201-7.201-7.201-3.971 0-7.201 3.234-7.201 7.203z"/><path fill="none" stroke="#ed1b24" stroke-miterlimit="20" stroke-width="2" d="M37.2 59.347c0-6.197 5.04-11.237 11.237-11.237 6.196 0 11.237 5.04 11.237 11.239 0 6.194-5.04 11.235-11.237 11.235S37.2 65.544 37.2 59.347zm4.036.002c0 3.969 3.23 7.2 7.2 7.2 3.972 0 7.202-3.233 7.202-7.202 0-3.97-3.23-7.201-7.201-7.201-3.971 0-7.201 3.234-7.201 7.203z" clip-path="url(&quot;#dqalb&quot;)"/></g><g><path fill="#ed1b24" d="M30.279 106.627c.472 0 .948-.165 1.332-.502l32.915-28.98L85.313 97.93a2.016 2.016 0 0 0 2.853 0 2.016 2.016 0 0 0 0-2.853l-9.7-9.7 18.526-20.286 22.722 20.83a2.019 2.019 0 0 0 2.726-2.976L98.227 60.749a2.081 2.081 0 0 0-1.453-.528c-.535.024-1.04.26-1.4.655L75.612 82.521l-9.57-9.57a2.02 2.02 0 0 0-2.76-.09l-34.337 30.233a2.018 2.018 0 0 0 1.334 3.533z"/><path fill="none" stroke="#ed1b24" stroke-miterlimit="20" stroke-width="2" d="M30.279 106.627c.472 0 .948-.165 1.332-.502l32.915-28.98v0L85.313 97.93a2.016 2.016 0 0 0 2.853 0 2.016 2.016 0 0 0 0-2.853l-9.7-9.7v0l18.526-20.286v0l22.722 20.83a2.019 2.019 0 0 0 2.726-2.976L98.227 60.749a2.081 2.081 0 0 0-1.453-.528c-.535.024-1.04.26-1.4.655L75.612 82.521v0l-9.57-9.57a2.02 2.02 0 0 0-2.76-.09l-34.337 30.233a2.018 2.018 0 0 0 1.334 3.533z" clip-path="url(&quot;#dqalc&quot;)"/></g></g></g></svg>