<svg xmlns="http://www.w3.org/2000/svg" width="172" height="150" viewBox="0 0 172 150"><defs><clipPath id="qcy8a"><path fill="#fff" d="M0 151V0h172v151zM15.921 17.81a2.5 2.5 0 0 0-2.501 2.501v110.057a2.5 2.5 0 0 0 2.501 2.501h140.072a2.5 2.5 0 0 0 2.501-2.501V20.311a2.5 2.5 0 0 0-2.501-2.501zm137.571 110.056H18.422V22.813h135.07z"/></clipPath><clipPath id="qcy8b"><path fill="#fff" d="M43 67V50.046a13.873 13.873 0 0 0-3.49 9.214c0 7.681 6.248 13.93 13.93 13.93 4.82 0 9.074-2.46 11.576-6.19h-7.133a8.87 8.87 0 0 1-4.443 1.187A8.874 8.874 0 0 1 48.995 67zm0-31h31v31h-8.984a13.846 13.846 0 0 0 2.353-7.738c0-7.684-6.248-13.932-13.93-13.932A13.9 13.9 0 0 0 43 50.046zm10.44 14.333c4.922 0 8.927 4.007 8.927 8.927A8.935 8.935 0 0 1 57.883 67h-8.888a8.93 8.93 0 0 1-4.482-7.738c0-4.92 4.004-8.93 8.927-8.93z"/></clipPath><clipPath id="qcy8c"><path fill="#fff" d="M18.329 112V66h88.862L87.119 87.985 75.255 76.12a2.504 2.504 0 0 0-3.421-.11L30.96 112zM141.67 66v19.305L120.612 66zm0 46H38.531L73.377 81.32l25.768 25.766a2.498 2.498 0 0 0 3.537 0 2.498 2.498 0 0 0 0-3.537L90.658 91.527l22.964-25.148 28.05 25.713zm-110.748 5.868c.585 0 1.175-.205 1.65-.623L38.531 112H30.96l-1.69 1.488a2.502 2.502 0 0 0 1.653 4.38zM141.789 92.2a2.503 2.503 0 0 0 3.535-.156 2.5 2.5 0 0 0-.156-3.534l-3.497-3.205v6.787zm-26.636-31.204a2.58 2.58 0 0 0-1.8-.655 2.506 2.506 0 0 0-1.737.813L107.191 66h13.421z"/></clipPath></defs><g><g transform="rotate(15 86 75.5)"><g><path fill="#ed1b24" d="M155.993 17.81a2.5 2.5 0 0 1 2.501 2.501v110.057a2.5 2.5 0 0 1-2.501 2.501H15.921a2.5 2.5 0 0 1-2.501-2.501V20.311a2.5 2.5 0 0 1 2.501-2.501zm-2.501 5.003H18.422v105.053h135.07z"/><path fill="none" stroke="#ed1b24" stroke-miterlimit="20" stroke-width="2" d="M155.993 17.81a2.5 2.5 0 0 1 2.501 2.501v110.057a2.5 2.5 0 0 1-2.501 2.501H15.921a2.5 2.5 0 0 1-2.501-2.501V20.311a2.5 2.5 0 0 1 2.501-2.501zm-2.501 5.003H18.422v105.053h135.07z" clip-path="url(&quot;#qcy8a&quot;)"/></g><g><path fill="#ed1b24" d="M39.51 59.26c0-7.682 6.248-13.93 13.93-13.93 7.681 0 13.93 6.248 13.93 13.932 0 7.679-6.249 13.927-13.93 13.927-7.682 0-13.93-6.248-13.93-13.93zm5.003.002c0 4.92 4.004 8.925 8.927 8.925 4.922 0 8.927-4.007 8.927-8.927s-4.005-8.927-8.927-8.927c-4.923 0-8.927 4.01-8.927 8.93z"/><path fill="none" stroke="#ed1b24" stroke-miterlimit="20" stroke-width="2" d="M39.51 59.26c0-7.682 6.248-13.93 13.93-13.93 7.681 0 13.93 6.248 13.93 13.932 0 7.679-6.249 13.927-13.93 13.927-7.682 0-13.93-6.248-13.93-13.93zm5.003.002c0 4.92 4.004 8.925 8.927 8.925 4.922 0 8.927-4.007 8.927-8.927s-4.005-8.927-8.927-8.927c-4.923 0-8.927 4.01-8.927 8.93z" clip-path="url(&quot;#qcy8b&quot;)"/></g><g><path fill="#ed1b24" d="M30.923 117.868c.585 0 1.175-.205 1.65-.623L73.377 81.32l25.768 25.766a2.498 2.498 0 0 0 3.537 0 2.498 2.498 0 0 0 0-3.537L90.658 91.527l22.964-25.148 28.167 25.82a2.503 2.503 0 0 0 3.535-.155 2.5 2.5 0 0 0-.156-3.534l-30.015-27.514a2.58 2.58 0 0 0-1.8-.655 2.506 2.506 0 0 0-1.737.813L87.12 87.984 75.255 76.122a2.504 2.504 0 0 0-3.422-.11L29.27 113.488a2.502 2.502 0 0 0 1.654 4.38z"/><path fill="none" stroke="#ed1b24" stroke-miterlimit="20" stroke-width="2" d="M30.923 117.868c.585 0 1.175-.205 1.65-.623L73.377 81.32v0l25.768 25.766a2.498 2.498 0 0 0 3.537 0 2.498 2.498 0 0 0 0-3.537L90.658 91.527v0l22.964-25.148v0l28.167 25.82a2.503 2.503 0 0 0 3.535-.155 2.5 2.5 0 0 0-.156-3.534l-30.015-27.514a2.58 2.58 0 0 0-1.8-.655 2.506 2.506 0 0 0-1.737.813L87.12 87.984v0L75.255 76.122a2.504 2.504 0 0 0-3.422-.11L29.27 113.488a2.502 2.502 0 0 0 1.654 4.38z" clip-path="url(&quot;#qcy8c&quot;)"/></g></g></g></svg>